<svg width="512" height="512" viewBox="0 0 512 512" fill="none" xmlns="http://www.w3.org/2000/svg">
<g clip-path="url(#clip0_511_4)">
<path d="M464 256C464 200.835 442.086 147.929 403.078 108.922C364.071 69.9142 311.165 48 256 48C200.835 48 147.929 69.9142 108.922 108.922C69.9142 147.929 48 200.835 48 256C48 311.165 69.9142 364.071 108.922 403.078C147.929 442.086 200.835 464 256 464C311.165 464 364.071 442.086 403.078 403.078C442.086 364.071 464 311.165 464 256ZM0 256C0 188.105 26.9714 122.99 74.9807 74.9807C122.99 26.9714 188.105 0 256 0C323.895 0 389.01 26.9714 437.019 74.9807C485.029 122.99 512 188.105 512 256C512 323.895 485.029 389.01 437.019 437.019C389.01 485.029 323.895 512 256 512C188.105 512 122.99 485.029 74.9807 437.019C26.9714 389.01 0 323.895 0 256ZM188.3 147.1C195.9 142.9 205.1 143 212.6 147.6L356.6 235.6C363.7 240 368.1 247.7 368.1 256.1C368.1 264.5 363.7 272.2 356.6 276.6L212.6 364.6C205.2 369.1 195.9 369.3 188.3 365.1C180.7 360.9 176 352.9 176 344.2V168C176 159.3 180.7 151.3 188.3 147.1Z" fill="white"/>
</g>
<defs>
<clipPath id="clip0_511_4">
<rect width="512" height="512" fill="white"/>
</clipPath>
</defs>
</svg>
