<svg width="30" height="31" viewBox="0 0 30 31" fill="none" xmlns="http://www.w3.org/2000/svg">
<mask id="path-2-inside-1_474_1962" fill="white">
<path d="M15 7.76306C10.7661 7.76306 7.25803 11.2106 7.25803 15.505C7.25803 19.7994 10.7056 23.2469 15 23.2469C19.2943 23.2469 22.7419 19.7389 22.7419 15.505C22.7419 11.2711 19.2338 7.76306 15 7.76306ZM15 20.4647C12.2782 20.4647 10.0403 18.2268 10.0403 15.505C10.0403 12.7832 12.2782 10.5453 15 10.5453C17.7217 10.5453 19.9596 12.7832 19.9596 15.505C19.9596 18.2268 17.7217 20.4647 15 20.4647Z"/>
</mask>
<path d="M15 -6.73694C2.83176 -6.73694 -7.24197 3.12891 -7.24197 15.505H21.758C21.758 19.2924 18.7004 22.2631 15 22.2631V-6.73694ZM-7.24197 15.505C-7.24197 27.8075 2.69748 37.7469 15 37.7469V8.74693C18.7137 8.74693 21.758 11.7912 21.758 15.505H-7.24197ZM15 37.7469C27.376 37.7469 37.2419 27.6732 37.2419 15.505H8.2419C8.2419 11.8045 11.2126 8.74693 15 8.74693V37.7469ZM37.2419 15.505C37.2419 3.263 27.242 -6.73694 15 -6.73694V22.2631C11.2257 22.2631 8.2419 19.2793 8.2419 15.505H37.2419ZM15 5.96467C20.2863 5.96467 24.5403 10.2186 24.5403 15.505H-4.45972C-4.45972 26.2349 4.27006 34.9647 15 34.9647V5.96467ZM24.5403 15.505C24.5403 20.7914 20.2863 25.0453 15 25.0453V-3.95468C4.27006 -3.95468 -4.45972 4.77509 -4.45972 15.505H24.5403ZM15 25.0453C9.71361 25.0453 5.45964 20.7914 5.45964 15.505H34.4596C34.4596 4.77509 25.7299 -3.95468 15 -3.95468V25.0453ZM5.45964 15.505C5.45964 10.2186 9.71361 5.96467 15 5.96467V34.9647C25.7299 34.9647 34.4596 26.2349 34.4596 15.505H5.45964Z" fill="white" mask="url(#path-2-inside-1_474_1962)"/>
<path d="M22.7903 8.82764C23.6188 8.82764 24.2903 8.15606 24.2903 7.32764C24.2903 6.49921 23.6188 5.82764 22.7903 5.82764C21.9619 5.82764 21.2903 6.49921 21.2903 7.32764C21.2903 8.15606 21.9619 8.82764 22.7903 8.82764Z" fill="white"/>
<rect x="0.5" y="1.06543" width="29" height="29" rx="5.84375" stroke="white"/>
</svg>
