<?xml version="1.0" encoding="UTF-8"?><svg id="Layer_1" xmlns="http://www.w3.org/2000/svg" viewBox="0 0 216.09 251.73"><defs><style>.cls-1{fill:#f4b80f;}</style></defs><polyline points="0 202.19 107.55 250.7 216.09 204.57 216.09 0 1.39 0 1.39 202.19"/><path class="cls-1" d="M0,0V203.98l2.31,1.01,105.75,46.75,108.02-47.76V0H0ZM208.31,198.91l-100.25,44.33L7.77,198.88V7.77H208.31V198.91Z"/><path class="cls-1" d="M20.24,19.92V190.93l86.81,38.39,1.01,.44,85.83-37.93,1.99-.9V19.92H20.24ZM185.5,184.2l-77.44,34.24-1.01-.47L30.62,184.2V30.29H185.5V184.2Z"/><rect class="cls-1" x="20.23" y="19.92" width="86.84" height="92.44"/><polygon class="cls-1" points="193.89 112.35 193.89 191.81 108.04 229.76 107.06 229.31 107.06 112.35 193.89 112.35"/><path class="cls-1" d="M47.75,155.99l18.08,25.72,18.07-25.72-18.07-25.73-18.08,25.73Zm26.92,10.49l6.24-10.73-6.24-10.72,7.54,10.72-7.55,10.73Zm-21.94-10.72l10.42,17.9-12.58-17.9,12.58-17.91-10.42,17.91Z"/><path d="M142.39,171.98c2.8,0,4.86-1.9,6.51-3.4-.02,.84-.04,1.64-.07,1.78-.77,4.64-3.17,7.05-5.58,8.31,3.11-1.18,6.61-3.83,6.87-9.75,0,0,.06,3.02-.07,4.08-.69,5.63-6.58,6.61-9.32,6.84-1.86,.16-3.52,.13-3.52,.13l-.11,1.58h26.1l-.11-1.43s-10.02,.83-11.66-9.83c-.01-.11-.04-.99-.05-1.94,1.72,1.53,3.91,3.6,6.7,3.6,6.22,0,11.26-5.04,11.26-11.26,0-4.68-4.64-8.65-8.47-10.84-7.45-4.26-10.63-16.06-10.63-16.06,0,0-2.38,10.27-10.63,16.06-3.61,2.54-8.48,6.15-8.48,10.84,0,6.22,5.04,11.29,11.26,11.29m10.49-28.62c1.47,2.75,3.67,5.88,6.6,7.46,3.04,1.63,6.77,4.66,6.96,8.46,0,.17,0,.34,0,.51-.42-3.51-3.83-5.58-6.66-7.15-3.16-1.74-5.47-5.91-6.9-9.29m-10.35,7.92c-3.02,2.17-7.97,5.27-7.97,9.28,0,2.43,.88,4.64,2.32,6.34-2.05-1.79-3.36-4.42-3.36-7.36,0-4.04,4.19-7.15,7.31-9.34,7.1-4.99,9.16-13.84,9.16-13.84,0,0,.12,.46,.37,1.2-.46,2.55-2.24,9.68-7.82,13.71"/><path class="cls-1" d="M158.1,51.44c-2.95,0-5.66,.97-7.86,2.6-2.2-1.63-4.91-2.6-7.86-2.6-7.33,0-13.27,5.94-13.27,13.27,0,5.52,4.53,9.02,8.6,12.25,7.6,6.03,12.53,16.86,12.53,16.86,0,0,4.68-11.7,12.53-16.86,4.35-2.85,8.6-6.73,8.6-12.25,0-7.33-5.94-13.27-13.26-13.27m-24.94,5.06c2.34-2.39,5.59-3.89,9.14-3.89,2.74,0,5.28,1.23,7.11,2.75-.25,.2-.85,.91-1.08,1.14-2.09-1.53-4.29-2.95-7.08-2.95-3.08,0-5.9,1.11-8.09,2.95m16.28,32.95s-2.74-5.34-6.98-10.15c3.47,2.99,6.41,6.24,7.59,8.56-.29,.71-.6,1.59-.6,1.59m12.48-13.81c-2.36,1.55-4.4,3.77-6.06,6.02,1.16-2.07,2.56-4.06,4.18-5.44,3.52-3,8.22-5.7,8.22-10.6,0-6.51-4.78-11.82-11.29-11.85-1.82,0-3.19,.19-4.31,.59,1.55-.83,3.28-1.39,5.11-1.39,6.51,0,11.78,5.27,11.78,11.79,0,4.9-3.78,8.35-7.64,10.88"/><path d="M78.36,84.54c5.82,0,10.53-4.71,10.53-10.54s-4.72-10.53-10.53-10.53c-1.09,0-2.15,.16-3.14,.47,.72-1.43,1.14-3.04,1.14-4.74,0-5.82-4.71-10.54-10.54-10.54s-10.53,4.71-10.53,10.54c0,1.7,.42,3.31,1.14,4.74-.99-.31-2.04-.47-3.13-.47-5.82,0-10.54,4.72-10.54,10.53s4.73,10.54,10.54,10.54c3.85,0,8.77-2.12,10.8-5.12-.01,.77-.02,1.73-.03,1.8-1.86,12.1-12.36,11.13-12.36,11.13l-.12,1.6h27.88l-.12-1.77s-.41,.04-1.08,0c-3.16,.04-10.91-.45-11.77-6.32-.15-1.01-.08-3.86-.08-3.85,.29,5.46,4.03,7.97,7.45,9.14-2.82-1.26-5.87-3.99-6.85-9.86-.02-.09-.03-1.19-.04-1.97,1.97,3.08,7.39,5.23,11.37,5.23m-24.66-18.69c-3.38-.62-6.39,.41-8.47,2.52,2.04-3.07,5.63-4.7,9.73-3.94,.46,.09,1.14,.26,1.59,.4l.98,2.4c-1.07-.56-2.64-1.16-3.82-1.38m10.36-13.52c-2.71,0-5.14,1.15-6.86,3,1.69-2.68,4.66-4.46,8.05-4.46,5.25,0,9.52,4.26,9.52,9.51,0,1.54-.38,2.99-1.03,4.28,.89-.27,1.84-.42,2.83-.42,5.25,0,9.51,4.26,9.51,9.51,0,3.51-1.91,6.57-4.73,8.21,1.98-1.72,3.24-4.25,3.24-7.07,0-5.18-4.2-9.37-9.37-9.37-.97,0-1.91,.14-2.78,.42,.64-1.27,1.01-2.7,1.01-4.22,0-5.18-4.2-9.37-9.37-9.37"/></svg>