<svg width="512" height="512" viewBox="0 0 512 512" fill="none" xmlns="http://www.w3.org/2000/svg">
<g clip-path="url(#clip0_511_2)">
<path d="M464 256C464 200.835 442.086 147.929 403.078 108.922C364.071 69.9142 311.165 48 256 48C200.835 48 147.929 69.9142 108.922 108.922C69.9142 147.929 48 200.835 48 256C48 311.165 69.9142 364.071 108.922 403.078C147.929 442.086 200.835 464 256 464C311.165 464 364.071 442.086 403.078 403.078C442.086 364.071 464 311.165 464 256ZM0 256C0 188.105 26.9714 122.99 74.9807 74.9807C122.99 26.9714 188.105 0 256 0C323.895 0 389.01 26.9714 437.019 74.9807C485.029 122.99 512 188.105 512 256C512 323.895 485.029 389.01 437.019 437.019C389.01 485.029 323.895 512 256 512C188.105 512 122.99 485.029 74.9807 437.019C26.9714 389.01 0 323.895 0 256ZM224 184V328C224 341.3 213.3 352 200 352C186.7 352 176 341.3 176 328V184C176 170.7 186.7 160 200 160C213.3 160 224 170.7 224 184ZM336 184V328C336 341.3 325.3 352 312 352C298.7 352 288 341.3 288 328V184C288 170.7 298.7 160 312 160C325.3 160 336 170.7 336 184Z" fill="white"/>
</g>
<defs>
<clipPath id="clip0_511_2">
<rect width="512" height="512" fill="white"/>
</clipPath>
</defs>
</svg>
