<svg width="37" height="27" viewBox="0 0 37 27" fill="none" xmlns="http://www.w3.org/2000/svg">
<path d="M30.9905 4.38046L31.4017 4.09599L31.3583 4.03325L31.2982 3.9863L30.9905 4.38046ZM30.9905 4.38046C31.4017 4.09599 31.4019 4.09618 31.402 4.09639L31.4024 4.09692L31.4034 4.09837L31.4064 4.10283L31.4167 4.11797C31.4253 4.13083 31.4376 4.14921 31.4532 4.17313C31.4844 4.22096 31.5292 4.29089 31.5857 4.38287C31.6987 4.56684 31.8588 4.83903 32.052 5.19904C32.4384 5.91906 32.9573 6.99041 33.4968 8.40982C34.576 11.2491 35.7372 15.4792 36.0869 21.0728L36.0997 21.2774L35.9652 21.4321C33.9142 23.7904 31.3374 24.9696 29.291 25.5601C28.2662 25.8558 27.368 26.0058 26.724 26.082C26.4018 26.1202 26.1425 26.1399 25.962 26.1501C25.8717 26.1553 25.8011 26.158 25.752 26.1594C25.7275 26.1602 25.7084 26.1606 25.6949 26.1608L25.6789 26.1611L25.6742 26.1611L25.6726 26.1611L25.672 26.1611C25.6718 26.1611 25.6716 26.1611 25.669 25.6611L25.6716 26.1611L25.4203 26.1624L25.2693 25.9615L24.0202 24.2996L23.6076 23.7506L24.2568 23.5266C24.8495 23.322 25.4646 23.0705 26.0878 22.7611C24.1036 23.4362 21.7091 23.8825 18.7939 23.8825C15.8729 23.8825 13.4722 23.432 11.4845 22.7533C12.113 23.0663 12.7334 23.3203 13.3311 23.5266L13.9803 23.7506L13.5677 24.2996L12.3186 25.9615L12.1676 26.1624L11.9163 26.1611L11.9189 25.6611C11.9163 26.1611 11.9161 26.1611 11.9159 26.1611L11.9153 26.1611L11.9137 26.1611L11.909 26.1611L11.893 26.1608C11.8795 26.1606 11.8604 26.1602 11.8359 26.1594C11.7868 26.158 11.7162 26.1553 11.6259 26.1501C11.4454 26.1399 11.1861 26.1202 10.8638 26.082C10.2199 26.0058 9.32166 25.8558 8.29687 25.5601C6.25051 24.9696 3.67373 23.7904 1.62272 21.4321L1.48854 21.2778L1.50092 21.0737C1.84007 15.48 2.99596 11.2496 4.07256 8.4102C4.61077 6.99071 5.129 5.91928 5.51511 5.1992C5.70817 4.83915 5.8682 4.56693 5.9812 4.38294C6.03771 4.29095 6.08245 4.221 6.11369 4.17316C6.12931 4.14924 6.14156 4.13085 6.15021 4.11798L6.16046 4.10284L6.16351 4.09838L6.16451 4.09693L6.16488 4.0964C6.16502 4.09618 6.16515 4.09599 6.57635 4.38046M30.9905 4.38046C31.2982 3.9863 31.2981 3.98621 31.2979 3.98611L31.2976 3.98586L31.2967 3.98518L31.294 3.98307L31.2848 3.97594L31.2512 3.95046C31.2223 3.92865 31.1803 3.89739 31.1259 3.85793C31.0172 3.77903 30.8588 3.66729 30.6565 3.53285C30.2521 3.26415 29.6703 2.90373 28.9562 2.53338C27.5332 1.7955 25.5578 1.00409 23.3976 0.840298L23.0613 0.8148L22.9117 1.11704L22.5443 1.85915L22.2671 2.41906L22.8742 2.56679C23.4682 2.71136 24.009 2.86583 24.5057 3.02994C22.8835 2.61387 21.0294 2.35444 18.7834 2.35444C16.4587 2.35444 14.5539 2.63238 12.8914 3.07429C13.4432 2.88306 14.0378 2.71337 14.6836 2.56892L15.3051 2.4299L15.0226 1.85915L14.6552 1.11704L14.5026 0.80887L14.1603 0.841063C11.908 1.05286 9.93675 1.84104 8.53565 2.56881C7.83339 2.93358 7.2697 3.28561 6.88006 3.54761C6.68512 3.67868 6.53342 3.78744 6.42937 3.8643C6.37734 3.90273 6.33719 3.93321 6.30948 3.95453L6.27731 3.9795L6.26835 3.98657L6.26567 3.98869L6.26478 3.9894L6.26445 3.98966C6.26432 3.98977 6.2642 3.98987 6.57635 4.38046M6.57635 4.38046L6.2642 3.98987L6.20689 4.03566L6.16515 4.09599L6.57635 4.38046ZM13.8082 17.5624C12.6625 17.5624 11.6317 16.4893 11.6317 15.0208C11.6317 13.5523 12.6625 12.4792 13.8082 12.4792C14.954 12.4792 15.9848 13.5523 15.9848 15.0208C15.9848 16.4893 14.954 17.5624 13.8082 17.5624ZM23.7377 17.5624C22.5919 17.5624 21.5611 16.4893 21.5611 15.0208C21.5611 13.5523 22.5919 12.4792 23.7377 12.4792C24.8834 12.4792 25.9142 13.5523 25.9142 15.0208C25.9142 16.488 24.8741 17.5624 23.7377 17.5624Z" fill="black" fill-opacity="0.3" stroke="white"/>
</svg>
