<svg width="34" height="25" viewBox="0 0 34 25" fill="none" xmlns="http://www.w3.org/2000/svg">
<path d="M16.4322 14.3466L2.65897 0.630492H30.1672L16.4322 14.3466Z" stroke="white"/>
<path d="M18.2393 16.8717L18.2396 16.8714L32.5255 2.64432V22.818C32.5255 23.2324 32.3609 23.6299 32.0679 23.9229C31.7749 24.2159 31.3774 24.3805 30.963 24.3805H2.08803C1.67363 24.3805 1.2762 24.2159 0.983174 23.9229C0.690148 23.6299 0.525528 23.2324 0.525528 22.818V2.81016L14.6256 16.8711L14.6262 16.8717C15.1063 17.349 15.7557 17.6169 16.4327 17.6169C17.1097 17.6169 17.7592 17.349 18.2393 16.8717ZM3.50084 23.318H3.70674L3.85293 23.173L11.3707 15.7171L11.7272 15.3636L11.3722 15.0085L9.91814 13.5545L9.56605 13.2024L9.21251 13.553L1.71532 20.9883L1.5674 21.135V21.3433V22.818V23.318H2.0674H3.50084ZM30.9424 23.318H31.4459L31.4424 22.8145L31.4321 21.3398L31.4306 21.1336L31.2842 20.9883L23.787 13.553L23.4334 13.2024L23.0813 13.5545L21.6273 15.0085L21.2723 15.3636L21.6287 15.7171L29.1466 23.173L29.2928 23.318H29.4987H30.9424Z" stroke="white"/>
</svg>
