<?xml version="1.0" encoding="utf-8"?>
<!-- Generator: Adobe Illustrator 21.0.0, SVG Export Plug-In . SVG Version: 6.00 Build 0)  -->
<svg version="1.1" id="Layer_1" xmlns="http://www.w3.org/2000/svg" xmlns:xlink="http://www.w3.org/1999/xlink" x="0px" y="0px"
	 viewBox="0 0 1046 251.7" style="enable-background:new 0 0 1046 251.7;" xml:space="preserve">
<style type="text/css">
	.st0{fill:none;}
	.st1{fill:#F4B80F;}
	.st2{fill:#FFFFFF;}
</style>
<title>Artboard 1</title>
<rect class="st0" width="1046" height="251.7"/>
<polyline points="0,202.2 107.6,250.7 216.1,204.6 216.1,0 1.4,0 1.4,202.2 "/>
<path class="st1" d="M0,0v204l2.3,1l105.8,46.8l108-47.8V0H0z M208.3,198.9l-100.3,44.3L7.8,198.9V7.8h200.5V198.9z"/>
<path class="st1" d="M20.2,19.9v171l86.8,38.4l1,0.4l85.8-37.9l2-0.9v-171L20.2,19.9z M185.5,184.2l-77.4,34.2l-1-0.5l-76.4-33.8
	V30.3h154.9V184.2z"/>
<rect x="20.2" y="19.9" class="st1" width="86.8" height="92.4"/>
<polygon class="st1" points="193.9,112.3 193.9,191.8 108,229.8 107.1,229.3 107.1,112.3 "/>
<path class="st1" d="M47.8,156l18.1,25.7L83.9,156l-18.1-25.7L47.8,156z M74.7,166.5l6.2-10.7L74.7,145l7.5,10.7L74.7,166.5
	L74.7,166.5z M52.7,155.8l10.4,17.9l-12.6-17.9l12.6-17.9L52.7,155.8z"/>
<path d="M142.4,172c2.8,0,4.9-1.9,6.5-3.4c0,0.8,0,1.6-0.1,1.8c-0.8,4.6-3.2,7.1-5.6,8.3c3.1-1.2,6.6-3.8,6.9-9.8c0,0,0.1,3-0.1,4.1
	c-0.7,5.6-6.6,6.6-9.3,6.8c-1.9,0.2-3.5,0.1-3.5,0.1l-0.1,1.6h26.1l-0.1-1.4c0,0-10,0.8-11.7-9.8c0-0.1,0-1-0.1-1.9
	c1.7,1.5,3.9,3.6,6.7,3.6c6.2,0,11.3-5,11.3-11.3c0-4.7-4.6-8.6-8.5-10.8c-7.4-4.3-10.6-16.1-10.6-16.1s-2.4,10.3-10.6,16.1
	c-3.6,2.5-8.5,6.1-8.5,10.8C131.1,166.9,136.2,172,142.4,172 M152.9,143.4c1.5,2.8,3.7,5.9,6.6,7.5s6.8,4.7,7,8.5v0.5
	c-0.4-3.5-3.8-5.6-6.7-7.1C156.7,150.9,154.4,146.8,152.9,143.4 M142.6,151.3c-3,2.2-8,5.3-8,9.3c0,2.3,0.8,4.6,2.3,6.3
	c-2.1-1.9-3.4-4.5-3.4-7.4c0-4,4.2-7.1,7.3-9.3c7.1-5,9.2-13.8,9.2-13.8s0.1,0.5,0.4,1.2C149.9,140.1,148.1,147.3,142.6,151.3"/>
<path class="st1" d="M158.1,51.4c-2.8,0-5.6,0.9-7.9,2.6c-5.9-4.4-14.2-3.1-18.5,2.8c-1.7,2.3-2.6,5.1-2.6,7.9c0,5.5,4.5,9,8.6,12.3
	c7.6,6,12.5,16.9,12.5,16.9s4.7-11.7,12.5-16.9c4.4-2.8,8.6-6.7,8.6-12.3C171.4,57.4,165.4,51.4,158.1,51.4 M133.2,56.5
	c2.4-2.5,5.7-3.9,9.1-3.9c2.6,0.1,5.1,1,7.1,2.8c-0.3,0.2-0.9,0.9-1.1,1.1c-2.1-1.5-4.3-3-7.1-3C138.3,53.5,135.4,54.6,133.2,56.5
	 M149.4,89.4c-2-3.6-4.3-7-7-10.2c3.5,3,6.4,6.2,7.6,8.6C149.8,88.6,149.4,89.4,149.4,89.4 M161.9,75.6c-2.4,1.6-4.4,3.7-6.1,6
	c1.1-2,2.5-3.9,4.2-5.4c3.5-3,8.2-5.7,8.2-10.6c0-6.5-4.8-11.8-11.3-11.8c-1.5-0.1-2.9,0.1-4.3,0.6c1.6-0.9,3.3-1.3,5.1-1.3
	c6.5,0,11.8,5.3,11.8,11.8c0,0,0,0,0,0C169.6,69.7,165.8,73.1,161.9,75.6"/>
<path d="M78.4,84.5c5.8,0,10.5-4.7,10.5-10.5c0-5.8-4.7-10.5-10.5-10.5c-1.1,0-2.1,0.2-3.1,0.5c2.6-5.2,0.6-11.5-4.6-14.2
	c-5.2-2.6-11.5-0.6-14.2,4.6c-1.5,3-1.5,6.6,0,9.6c-5.6-1.7-11.5,1.4-13.2,7c-0.3,1-0.5,2-0.5,3.1c0,5.8,4.7,10.5,10.5,10.5
	c3.8,0,8.8-2.1,10.8-5.1c0,0.8,0,1.7,0,1.8c-1.9,12.1-12.4,11.1-12.4,11.1l-0.1,1.6h27.9l-0.1-1.8c-0.4,0-0.7,0-1.1,0
	c-3.2,0-10.9-0.4-11.8-6.3c-0.1-1.3-0.1-2.6-0.1-3.9c0.3,5.5,4,8,7.4,9.1c-2.9-1.3-5.9-4-6.9-9.8c0-0.1,0-1.2,0-2
	C69,82.4,74.4,84.5,78.4,84.5 M53.7,65.9c-3.1-0.6-6.3,0.3-8.5,2.5c2.1-3.2,6-4.8,9.7-3.9c0.5,0.1,1.1,0.3,1.6,0.4l1,2.4
	C56.3,66.6,55,66.2,53.7,65.9 M64.1,52.3c-2.6,0-5.1,1.1-6.9,3c2.7-4.5,8.6-5.9,13.1-3.2c4.3,2.6,5.8,8.1,3.5,12.5
	c0.9-0.3,1.9-0.4,2.8-0.4c5.2,0,9.5,4.2,9.6,9.4c0,3.4-1.8,6.6-4.8,8.3c3.9-3.4,4.3-9.3,1-13.2c-1.8-2.1-4.4-3.2-7.1-3.2
	c-0.9,0-1.9,0.1-2.8,0.4c2.3-4.6,0.5-10.2-4.1-12.6C67,52.7,65.6,52.4,64.1,52.3"/>
<path class="st2" d="M262.4,116.3c-8.8,0.1-16.1-7-16.2-15.8c0,0,0-0.1,0-0.1c0-0.1,0-0.1,0-0.2V47.8h10v52.3c0,1.6,0.6,3.1,1.7,4.1
	c2.3,2.2,6,2.2,8.3,0c1.1-1.1,1.7-2.6,1.7-4.1V47.8h10.6v52.3c0.1,4.3-1.6,8.5-4.8,11.5C270.8,114.6,266.7,116.3,262.4,116.3"/>
<polygon class="st2" points="299.1,47.8 312.7,93.3 312.7,47.8 322.9,47.8 322.9,115.6 312,115.6 297.9,72.1 297.9,115.6 
	287.7,115.6 287.7,47.8 "/>
<rect x="332" y="47.8" class="st2" width="10.2" height="67.8"/>
<polygon class="st2" points="362.9,115.6 350.8,47.8 361.5,47.8 370,100.6 378.6,47.8 389.3,47.8 377,115.6 "/>
<polygon class="st2" points="397.9,115.6 397.9,47.8 427,47.8 427,58 408.1,58 408.1,76.5 421.9,76.5 421.9,86.8 408.1,86.8 
	408.1,105.3 427,105.3 427,115.6 "/>
<path class="st2" d="M450.1,47.8c5.7,0,9.9,1.6,12.5,4.7c2.3,2.7,3.5,6.6,3.5,11.5v9.8c0.1,4.7-1.9,9.1-5.5,12.2l7.6,29.6h-11
	L451,90.1h-6.8v25.5H434V47.8H450.1z M456.2,64.2c0-3.9-1.9-5.9-5.9-5.9h-6.2v21.7h6.2c1.6,0,3.1-0.6,4.1-1.7
	c1.1-1.1,1.7-2.6,1.7-4.2L456.2,64.2L456.2,64.2z"/>
<path class="st2" d="M507.4,98.7c0.2,4.3-1.1,8.6-3.7,12.1c-1.7,2.3-4.2,4-7,4.8c-1.8,0.5-3.8,0.8-5.7,0.8c-3.6,0.1-7.1-0.9-9.9-3
	c-2.3-1.7-4.1-4-5.2-6.6c-1.3-3-2.1-6.3-2.2-9.6l9.7-0.7c0.4,3.9,1.5,6.8,3.1,8.6c1,1.3,2.6,2,4.2,1.9c2.3-0.1,4.3-1.4,5.4-3.3
	c0.8-1.4,1.1-2.9,1-4.4c0-2.8-1.3-5.6-3.8-8.4l-9.1-8.6c-2.8-2.6-5.2-5.6-7.2-8.8c-1.5-2.9-2.3-6.2-2.2-9.5c0-6.2,2.1-10.8,6.2-14
	c2.8-1.9,6.1-2.9,9.5-2.8c3.3-0.1,6.5,0.7,9.4,2.4c2.1,1.3,3.7,3.1,4.9,5.3c1.3,2.4,2,5.1,2.2,7.8l-9.8,1.8c-0.1-2.4-1-4.6-2.4-6.5
	c-1-1.1-2.5-1.8-4-1.7c-1.8,0-3.4,0.9-4.3,2.5c-0.9,1.5-1.3,3.3-1.2,5c0,3.1,1.3,6.3,4,9.5c1.4,1.6,2.9,3,4.5,4.3
	c1.6,1.3,3.2,2.7,4.7,4.2c2.3,2.2,4.2,4.7,5.8,7.4c0.6,1,1.1,2.1,1.6,3.2C506.7,94.2,507.2,96.4,507.4,98.7"/>
<rect x="515.8" y="47.8" class="st2" width="10.2" height="67.8"/>
<polygon class="st2" points="545.1,58.1 534.3,58.1 534.3,47.8 566.2,47.8 566.2,58.1 555.3,58.1 555.3,115.6 545.1,115.6 "/>
<polygon class="st2" points="586.9,87.2 573.2,47.8 584.4,47.8 592,72.1 599.5,47.8 610.8,47.8 597.1,87.2 597.1,115.6 586.9,115.6 
	"/>
<path class="st2" d="M641,47c8.9,0,16.2,7.2,16.2,16.2c0,0,0,0,0,0v37c0.2,8.9-6.8,16.4-15.8,16.6c-8.9,0.2-16.4-6.8-16.6-15.8l0,0
	c0-0.3,0-0.6,0-0.8v-37C624.8,54.3,632,47,641,47C641,46.9,641,46.9,641,47 M646.6,62.9c0-3.2-2.6-5.8-5.8-5.8c0,0,0,0,0,0h-0.1
	c-1.6,0-3.1,0.6-4.2,1.7c-1.1,1.1-1.8,2.6-1.7,4.1V100c0,1.6,0.6,3.1,1.7,4.1c1.1,1.1,2.6,1.7,4.2,1.7c3.2,0,5.8-2.6,5.8-5.8
	c0,0,0,0,0,0l0,0L646.6,62.9L646.6,62.9z"/>
<polygon class="st2" points="676.5,115.6 666.2,115.6 666.2,47.8 695.3,47.8 695.3,58 676.5,58 676.5,76.5 690.2,76.5 690.2,86.8 
	676.5,86.8 "/>
<polygon class="st2" points="751.4,47.8 762.1,47.8 751.5,115.6 741.8,115.6 735.9,78.3 730.5,115.6 720.7,115.6 709.4,47.8 
	720.1,47.8 725.4,84.1 730.4,47.8 741.1,47.8 746.4,84.1 "/>
<path class="st2" d="M773.9,100l-2.5,15.6h-10.6l11.5-67.8h14l11.3,67.7H787l-2.4-15.6H773.9z M779.3,63.3l-3.8,26.7h7.6L779.3,63.3
	z"/>
<polygon class="st2" points="807.6,58.1 796.8,58.1 796.8,47.8 828.6,47.8 828.6,58.1 817.8,58.1 817.8,115.6 807.6,115.6 "/>
<polygon class="st2" points="836.9,115.6 836.9,47.8 866,47.8 866,58 847.1,58 847.1,76.5 860.9,76.5 860.9,86.8 847.1,86.8 
	847.1,105.3 866,105.3 866,115.6 "/>
<path class="st2" d="M889,47.8c5.7,0,9.9,1.6,12.5,4.7c2.3,2.7,3.5,6.6,3.5,11.5v9.8c0.1,4.7-1.9,9.1-5.4,12.2l7.6,29.6h-11
	L890,90.1h-6.8v25.5H873V47.8H889z M895.1,64.2c0-3.9-2-5.9-5.8-5.9h-6.2v21.7h6.2c1.6,0,3.1-0.6,4.2-1.7c1.1-1.1,1.8-2.6,1.7-4.2
	L895.1,64.2L895.1,64.2z"/>
<polygon class="st2" points="943.9,115.6 916,115.6 916,47.8 926.2,47.8 926.2,105.4 943.9,105.4 "/>
<path class="st2" d="M967,47c8.9,0,16.2,7.2,16.2,16.2c0,0,0,0,0,0v37c0,8.9-7.2,16.2-16.2,16.2s-16.2-7.2-16.2-16.2v-37
	C950.9,54.3,958.1,47,967,47 M972.6,63c0-3.2-2.6-5.8-5.8-5.8c0,0,0,0,0,0h-0.1c-1.6,0-3.1,0.6-4.2,1.7c-1.1,1.1-1.8,2.6-1.7,4.1v37
	c0,1.6,0.6,3.1,1.7,4.1c1.1,1.1,2.6,1.7,4.2,1.7c3.2,0,5.8-2.6,5.8-5.8c0,0,0,0,0,0l0,0L972.6,63L972.6,63z"/>
<path class="st2" d="M1008.3,47c8.9,0,16.2,7.2,16.2,16.2c0,0,0,0,0,0v37c0,8.9-7.2,16.2-16.2,16.2s-16.2-7.2-16.2-16.2v-37
	C992.1,54.3,999.3,47,1008.3,47 M1013.8,63c0-3.2-2.6-5.8-5.8-5.8c0,0,0,0,0,0h-0.1c-1.6,0-3.1,0.6-4.2,1.7
	c-1.1,1.1-1.8,2.6-1.7,4.1v37c0,1.6,0.6,3.1,1.7,4.1c1.1,1.1,2.6,1.7,4.2,1.7c3.2,0,5.8-2.6,5.8-5.8c0,0,0,0,0,0c0,0,0,0,0-0.1
	L1013.8,63L1013.8,63z"/>
<path class="st1" d="M246.2,129.5h18.9c11.1,0,18.2,6.3,18.2,15.9v0.1c0,10.7-8.6,16.2-19.2,16.2h-9.5V177h-8.4L246.2,129.5z
	 M264.5,154.2c6.4,0,10.3-3.5,10.3-8.5v-0.1c0-5.6-4-8.5-10.3-8.5h-9.8v17.1L264.5,154.2z"/>
<path class="st1" d="M289.9,153.3v-0.1c0-13.4,10.4-24.5,25.1-24.5s25,11,25,24.4v0.1c0,13.4-10.4,24.5-25.1,24.5
	S289.9,166.7,289.9,153.3 M331.2,153.3v-0.1c0-9.2-6.8-16.9-16.3-16.9s-16.2,7.5-16.2,16.7v0.1c0,9.2,6.8,16.9,16.3,16.9
	S331.2,162.5,331.2,153.3"/>
<polygon class="st1" points="350.3,129.5 358.7,129.5 358.7,153.3 381.5,129.5 391.9,129.5 372,149.9 392.8,176.9 382.6,176.9 
	366.2,155.6 358.7,163.2 358.7,176.9 350.3,176.9 "/>
<polygon class="st1" points="400,129.5 435.6,129.5 435.6,136.9 408.4,136.9 408.4,149.3 432.5,149.3 432.5,156.7 408.4,156.7 
	408.4,169.5 435.9,169.5 435.9,176.9 400,176.9 "/>
<path class="st1" d="M445.9,129.5h21.4c6,0,10.8,1.8,13.8,4.8c2.6,2.7,4.1,6.4,4,10.2v0.1c0,7.8-4.7,12.5-11.5,14.4l13,18h-9.9
	l-11.8-16.6h-10.6V177h-8.4L445.9,129.5L445.9,129.5z M466.7,153c6,0,9.9-3.1,9.9-7.9v-0.1c0-5.1-3.7-7.9-10-7.9h-12.2V153H466.7z"
	/>
<path class="st1" d="M512.8,170l5.1-6c4.6,3.9,9.2,6.2,15.2,6.2c5.2,0,8.5-2.4,8.5-6V164c0-3.4-1.9-5.2-10.8-7.3
	c-10.2-2.4-16-5.4-16-14.2v-0.1c0-8.1,6.9-13.8,16.4-13.8c6.3-0.1,12.5,2,17.4,6L544,141c-4.3-3.2-8.6-4.9-13-4.9
	c-4.9,0-7.8,2.5-7.8,5.6v0.2c0,3.7,2.2,5.3,11.4,7.5c10.1,2.4,15.4,6,15.4,13.9v0.1c0,8.9-7.1,14.2-17.1,14.2
	C525.5,177.7,518.4,175,512.8,170"/>
<polygon class="st1" points="570.7,137.2 555.5,137.2 555.5,129.5 594.4,129.5 594.4,137.2 579.2,137.2 579.2,176.9 570.7,176.9 "/>
<path class="st1" d="M602.6,156.8v-27.4h8.4v27c0,8.8,4.6,13.6,12.1,13.6s12.1-4.4,12.1-13.2v-27.3h8.4v26.9
	c0,14.2-8.1,21.3-20.6,21.3S602.6,170.5,602.6,156.8"/>
<path class="st1" d="M655.2,129.5h17.9c15.1,0,25.5,10.2,25.5,23.6v0.1c0,13.4-10.4,23.7-25.5,23.7h-17.9V129.5L655.2,129.5z
	 M673.1,169.3c10,0,16.7-6.7,16.7-16v-0.1c0-9.3-6.6-16.1-16.7-16.1h-9.5v32.3L673.1,169.3z"/>
<rect x="709.3" y="129.5" class="st1" width="8.4" height="47.5"/>
<polygon class="st1" points="730.6,129.5 766.1,129.5 766.1,136.9 739,136.9 739,149.3 763.1,149.3 763.1,156.7 739,156.7 
	739,169.5 766.5,169.5 766.5,176.9 730.6,176.9 "/>
<path class="st1" d="M773.3,170l5.1-6c4.6,3.9,9.2,6.2,15.1,6.2c5.2,0,8.5-2.4,8.5-6V164c0-3.4-1.9-5.2-10.8-7.3
	c-10.2-2.4-16-5.4-16-14.2v-0.1c0-8.1,6.9-13.8,16.4-13.8c6.3-0.1,12.5,2,17.4,6l-4.5,6.3c-4.3-3.2-8.6-4.9-13-4.9
	c-4.9,0-7.8,2.5-7.8,5.6v0.2c0,3.7,2.2,5.3,11.4,7.5c10.1,2.4,15.4,6,15.4,13.9v0.1c0,8.9-7.1,14.2-17.1,14.2
	C786,177.7,778.8,175,773.3,170"/>
<path class="st1" d="M838.8,153.3v-0.1c0-13.5,10.2-24.5,24.7-24.5c8.8,0,14.2,3.1,18.8,7.4l-5.4,6.2c-3.8-3.5-8-5.9-13.4-5.9
	c-9.2,0-15.8,7.5-15.8,16.7v0.1c0,9.3,6.7,16.9,15.8,16.9c5.9,0,9.7-2.4,13.8-6.2l5.4,5.4c-5,5.2-10.5,8.4-19.5,8.4
	c-13.3,0.2-24.2-10.3-24.4-23.6C838.8,153.9,838.8,153.6,838.8,153.3"/>
<polygon class="st1" points="891.5,129.5 900,129.5 900,169.4 925.2,169.4 925.2,176.9 891.5,176.9 "/>
<path class="st1" d="M931.9,156.8v-27.4h8.4v27c0,8.8,4.6,13.6,12.1,13.6s12.1-4.4,12.1-13.2v-27.3h8.4v26.9
	c0,14.2-8.1,21.3-20.6,21.3S931.8,170.5,931.9,156.8"/>
<path class="st1" d="M984.5,129.5h21.5c5.5,0,9.8,1.5,12.5,4.2c2.1,2.1,3.3,4.9,3.2,7.9v0.1c0,5.7-3.3,8.8-6.8,10.6
	c5.6,1.9,9.5,5.1,9.5,11.5v0.2c0,8.5-7.1,13-17.7,13h-22.2L984.5,129.5L984.5,129.5z M1004.3,149.5c5.4,0,9-2.1,9-6.4v-0.2
	c0-3.7-3-6-8.4-6h-12.1v12.6L1004.3,149.5L1004.3,149.5z M1006.8,169.5c5.8,0,9.3-2.2,9.3-6.5v-0.1c0-4-3.2-6.4-9.9-6.4h-13.4v13
	L1006.8,169.5L1006.8,169.5z"/>
</svg>
